<svg width="18" height="18" viewBox="0 0 18 18" fill="none" xmlns="http://www.w3.org/2000/svg">
<g clip-path="url(#clip0_210_297)">
<path d="M18 6.48C18 6.675 17.9364 6.84375 17.8092 6.98625L12.6663 12.7463C12.5391 12.8888 12.3884 12.96 12.2143 12.96C12.0402 12.96 11.8895 12.8888 11.7623 12.7463C11.635 12.6038 11.5714 12.435 11.5714 12.24V9.36H9.32143C8.66518 9.36 8.07757 9.3825 7.55859 9.4275C7.03962 9.4725 6.524 9.55313 6.01172 9.66938C5.49944 9.78563 5.05413 9.945 4.67578 10.1475C4.29743 10.35 3.9442 10.6106 3.61607 10.9294C3.28795 11.2481 3.02009 11.6269 2.8125 12.0656C2.60491 12.5044 2.44252 13.0238 2.32533 13.6238C2.20815 14.2238 2.14955 14.9025 2.14955 15.66C2.14955 16.0725 2.16629 16.5338 2.19978 17.0438C2.19978 17.0888 2.20815 17.1769 2.22489 17.3081C2.24163 17.4394 2.25 17.5388 2.25 17.6063C2.25 17.7188 2.22154 17.8125 2.16462 17.8875C2.1077 17.9625 2.02902 18 1.92857 18C1.82143 18 1.72768 17.9363 1.64732 17.8088C1.60045 17.7413 1.55692 17.6588 1.51674 17.5613C1.47656 17.4638 1.43136 17.3513 1.38114 17.2238C1.33092 17.0963 1.29576 17.0063 1.27567 16.9538C0.425223 14.8163 0 13.125 0 11.88C0 10.3875 0.177455 9.13875 0.532366 8.13375C1.61719 5.11125 4.54687 3.6 9.32143 3.6H11.5714V0.72C11.5714 0.525 11.635 0.35625 11.7623 0.21375C11.8895 0.07125 12.0402 0 12.2143 0C12.3884 0 12.5391 0.07125 12.6663 0.21375L17.8092 5.97375C17.9364 6.11625 18 6.285 18 6.48Z" fill="white"/>
</g>
<defs>
<clipPath id="clip0_210_297">
<rect width="18" height="18" fill="white"/>
</clipPath>
</defs>
</svg>
